<?xml version="1.0" encoding="UTF-8"?>
<svg id="Layer_1" data-name="Layer 1" xmlns="http://www.w3.org/2000/svg" viewBox="0 0 85.253 72.353">
  <defs>
    <style>
      .cls-1 {
        fill: #07b1fc;
      }
    </style>
  </defs>
  <path class="cls-1" d="m0,15.085c0-2.427.812-4.803,2.374-6.66C7.556,2.266,14.449-.273,23.152.023c13.253.451,26.532.063,39.8.125,13.957.065,22.164,8.271,22.266,22.247.07,9.511.013,19.023.013,28.808h-12.51c0-7.882.032-15.446-.008-23.009-.056-10.71-4.7-15.434-15.241-15.474-10.536-.039-21.073-.055-31.609.004-10.002.056-14.985,5.073-15.098,15.161-.068,6.049-.158,12.104.031,18.148.272,8.668,5.452,13.74,14.073,13.8,13.02.092,26.042.024,39.357.024v12.392c-16.212,0-32.159.308-48.086-.137-6.198-.173-10.624-3.861-14.206-8.523C.669,61.943,0,59.914,0,57.837V15.085Z"/>
  <rect x="80.501" y="59.843" width="4.752" height="4.752" rx="1.087" ry="1.087"/>
  <rect x="80.501" y="67.6" width="4.752" height="4.752" rx=".585" ry=".585"/>
  <rect x="72.616" y="67.6" width="4.752" height="4.752" rx=".898" ry=".898"/>
</svg>