<?xml version="1.0" encoding="UTF-8"?>
<svg id="Layer_1" data-name="Layer 1" xmlns="http://www.w3.org/2000/svg" viewBox="0 0 347.255 72.353">
  <defs>
    <style>
      .cls-1 {
        fill: #07b1fc;
      }
    </style>
  </defs>
  <g>
    <path class="cls-1" d="m262.002,15.085c0-2.427.812-4.803,2.374-6.66,5.182-6.159,12.075-8.698,20.778-8.402,13.253.451,26.532.063,39.8.125,13.957.065,22.164,8.271,22.266,22.247.07,9.511.013,19.023.013,28.808h-12.51c0-7.882.032-15.446-.008-23.009-.056-10.71-4.7-15.434-15.241-15.474-10.536-.039-21.073-.055-31.609.004-10.002.056-14.985,5.073-15.098,15.161-.068,6.049-.158,12.104.031,18.148.272,8.668,5.452,13.74,14.073,13.8,13.02.092,26.042.024,39.357.024v12.392c-16.212,0-32.159.308-48.086-.137-6.198-.173-10.624-3.861-14.206-8.523-1.266-1.647-1.934-3.675-1.934-5.752V15.085Z"/>
    <rect x="342.503" y="59.843" width="4.752" height="4.752" rx="1.087" ry="1.087"/>
    <rect x="342.503" y="67.6" width="4.752" height="4.752" rx=".585" ry=".585"/>
    <rect x="334.618" y="67.6" width="4.752" height="4.752" rx=".898" ry=".898"/>
  </g>
  <g>
    <path d="m28.291,29.195v-4.92h9.084v33.497h-9.084v-4.674h-.283c-2.267,2.911-6.087,4.674-12.376,4.674C1.582,57.772,0,45.535,0,41.025c0-4.882,1.495-16.749,15.657-16.749,6.191,0,9.981,1.953,12.253,4.92h.38Zm-.568,11.829c0-4.534-1.604-8.94-9.443-8.94-8.696,0-9.614,6.333-9.614,8.94,0,2.406.973,8.94,9.598,8.94,7.856,0,9.458-3.873,9.458-8.94Z"/>
    <path d="m80.403,14.649v43.123h-9.083v-4.674h-.415c-2.266,2.911-6.086,4.674-12.376,4.674-14.049,0-15.632-12.238-15.632-16.748,0-4.883,1.495-16.749,15.657-16.749,6.191,0,9.979,1.95,12.254,4.92h.509v-14.546h9.086Zm-9.782,26.375c0-4.534-1.604-8.94-9.442-8.94-8.696,0-9.614,6.333-9.614,8.94,0,2.406.973,8.94,9.599,8.94,7.855,0,9.457-3.875,9.457-8.94Z"/>
    <path d="m124.12,24.535l-12.898,33.237h-13.836l-12.901-33.237h9.597l9.756,25.137h.931l9.756-25.137h9.597Z"/>
    <path d="m128.218,18.07h0c0-2.233,1.81-4.043,4.043-4.043h.952c2.233,0,4.043,1.81,4.043,4.043h0c0,2.233-1.81,4.043-4.043,4.043h-.952c-2.233,0-4.043-1.81-4.043-4.043Zm0,39.702V24.494h9.038v33.279h-9.038Z"/>
    <path d="m176.085,47.845c0,8.303-5.952,9.927-16.229,9.927-7.566,0-12.765-1.376-15.454-4.084-2.316-2.337-2.294-5.163-2.28-6.85l.004-.649h9.322v.287c0,2.861,2.13,4.137,8.167,4.137,3.632,0,7.118-.456,7.118-2.632,0-2.513-3.245-2.992-6.848-3.417-.488-.057-.968-.115-1.42-.174-9.628-1.271-15.592-3.401-15.592-10.076,0-4.671,2.697-10.241,15.542-10.241,13.867,0,16.781,6.14,16.781,11.289v.286h-9.241v-.288c0-2.635-2.241-4.03-7.54-4.03-5.076,0-6.136,1.838-6.136,2.869,0,1.471,1.036,2.297,6.866,3.17l.754.113c7.585,1.129,16.185,2.409,16.185,10.362Z"/>
    <path d="m216.928,40.718c0,11.746-8.519,17.054-18.669,17.054s-18.67-5.475-18.67-17.054c0-11.51,8.519-17.054,18.67-17.054s18.669,5.461,18.669,17.054Zm-8.929-.003c0-6.17-4.053-8.764-9.74-8.764s-9.741,2.492-9.741,8.764,4.052,8.766,9.741,8.766,9.74-2.691,9.74-8.766Z"/>
    <path d="m248.01,25.141l-1.446,8.568c-.846-.237-3.141-.746-6.011-.746-6.732,0-8.742,5.256-8.742,9.79v15.019h-9.085V24.294h9.085v4.918h.566c1.864-3.206,3.93-4.918,9.683-4.918,2.44,0,4.38.501,5.95.847Z"/>
  </g>
</svg>